<?xml version="1.0" encoding="utf-8"?>
<!-- Generator: Adobe Illustrator 24.2.0, SVG Export Plug-In . SVG Version: 6.00 Build 0)  -->
<svg version="1.1" id="Gradient" xmlns="http://www.w3.org/2000/svg" xmlns:xlink="http://www.w3.org/1999/xlink" x="0px" y="0px"
	 width="512px" height="512px" viewBox="0 0 512 512" style="enable-background:new 0 0 512 512;" xml:space="preserve">
<style type="text/css">
	.st0{fill:url(#SVGID_1_);}
</style>
<linearGradient id="SVGID_1_" gradientUnits="userSpaceOnUse" x1="256" y1="15.8898" x2="256" y2="495.8898" gradientTransform="matrix(1 0 0 -1 0 511.8898)">
	<stop  offset="0" style="stop-color:#3B67AF"/>
	<stop  offset="0.5" style="stop-color:#E05966"/>
	<stop  offset="1" style="stop-color:#E84527"/>
</linearGradient>
<path class="st0" d="M417.3,304c21.4,0,38.7-17.3,38.7-38.7V118.7c0-21.4-17.3-38.7-38.7-38.7H328V56c0-22.1-17.9-40-40-40H96
	c-22.1,0-40,17.9-40,40v368c0,22.1,17.9,40,40,40h104v24c0,4.4,3.6,8,8,8h160c4.4,0,8-3.6,8-8V384c0-13.3-10.7-24-24-24
	c-2.7,0-5.4,0.5-8,1.4V360c0-10.2-6.4-19.2-16-22.6V304H417.3z M96,32h192c10.2,0,19.2,6.4,22.6,16H73.4C76.8,38.4,85.8,32,96,32z
	 M200,436.3V448H96c-10.2,0-19.2-6.4-22.6-16h126.7C200,433.4,200,434.8,200,436.3z M209.2,403.3c-2.8,3.9-4.9,8.2-6.3,12.7H72V64
	h240v16H142.7c-21.4,0-38.7,17.3-38.7,38.7v146.6c0,21.4,17.3,38.7,38.7,38.7H232v85C222.8,390.6,214.6,395.7,209.2,403.3z M336,440
	c4.4,0,8-3.6,8-8v-48c0-4.4,3.6-8,8-8s8,3.6,8,8v96H216v-43.7c0-8.3,1.7-26,16-30.8V432c0,4.4,3.6,8,8,8s8-3.6,8-8V296
	c0-4.4,3.6-8,8-8s8,3.6,8,8v109c0,4.4,3.6,8,8,8s8-3.6,8-8v-53c0-4.4,3.6-8,8-8s8,3.6,8,8v64c0,4.4,3.6,8,8,8s8-3.6,8-8v-56
	c0-4.4,3.6-8,8-8s8,3.6,8,8v72C328,436.4,331.6,440,336,440z M280,329.4V304h32v33.4c-1.3,0.5-2.6,1-3.8,1.7
	C302.2,329.7,290.5,325.7,280,329.4z M278.6,288c-4.4-12.5-18.1-19-30.6-14.6c-6.8,2.4-12.2,7.8-14.6,14.6h-90.7
	c-12.5,0-22.7-10.2-22.7-22.7V118.7c0-12.5,10.2-22.7,22.7-22.7h274.6c12.5,0,22.7,10.2,22.7,22.7v146.6c0,12.5-10.2,22.7-22.7,22.7
	H278.6z M160,176h16c13.2,0,24-10.8,24-24v-16c0-13.2-10.8-24-24-24h-16c-13.2,0-24,10.8-24,24v16C136,165.2,146.8,176,160,176z
	 M152,136c0-4.4,3.6-8,8-8h16c4.4,0,8,3.6,8,8v16c0,4.4-3.6,8-8,8h-16c-4.4,0-8-3.6-8-8V136z M400,224c-4.2,0-8.4,1.1-12,3.2
	c-11.5-6.6-26.2-2.7-32.8,8.8c-6.6,11.5-2.7,26.2,8.8,32.8c7.4,4.3,16.6,4.3,24,0c11.5,6.6,26.2,2.7,32.8-8.8
	c6.6-11.5,2.7-26.2-8.8-32.8C408.4,225.1,404.2,224,400,224z M376,256c-4.4,0-8-3.6-8-8s3.6-8,8-8s8,3.6,8,8
	C384,252.4,380.4,256,376,256z M400,256c-0.4,0-0.9,0-1.3-0.1c1.8-5.1,1.8-10.7,0-15.8c4.4-0.7,8.5,2.2,9.2,6.5
	c0.7,4.4-2.2,8.5-6.5,9.2C400.9,256,400.5,256,400,256z M408,152v-16c0-4.4,3.6-8,8-8s8,3.6,8,8v16c0,4.4-3.6,8-8,8
	S408,156.4,408,152z M376,152v-16c0-4.4,3.6-8,8-8s8,3.6,8,8v16c0,4.4-3.6,8-8,8S376,156.4,376,152z M344,144c0-4.4,3.6-8,8-8
	s8,3.6,8,8s-3.6,8-8,8S344,148.4,344,144z M136,200c0-4.4,3.6-8,8-8h16c4.4,0,8,3.6,8,8s-3.6,8-8,8h-16C139.6,208,136,204.4,136,200
	z M200,200c0-4.4,3.6-8,8-8h16c4.4,0,8,3.6,8,8s-3.6,8-8,8h-16C203.6,208,200,204.4,200,200z M296,200c0,4.4-3.6,8-8,8h-16
	c-4.4,0-8-3.6-8-8s3.6-8,8-8h16C292.4,192,296,195.6,296,200z M352,208h-16c-4.4,0-8-3.6-8-8s3.6-8,8-8h16c4.4,0,8,3.6,8,8
	S356.4,208,352,208z M248,232c0,4.4-3.6,8-8,8l0,0l-96,0c-4.4,0-8-3.6-8-8s3.6-8,8-8l0,0l96,0C244.4,224,248,227.6,248,232z
	 M232,264c0,4.4-3.6,8-8,8l0,0l-80,0c-4.4,0-8-3.6-8-8s3.6-8,8-8l0,0l80,0C228.4,256,232,259.6,232,264z M136,360c0,4.4-3.6,8-8,8
	c-4.4,0-8-3.6-8-8s3.6-8,8-8C132.4,352,136,355.6,136,360z M168,360c0,4.4-3.6,8-8,8s-8-3.6-8-8s3.6-8,8-8S168,355.6,168,360z
	 M200,360c0,4.4-3.6,8-8,8s-8-3.6-8-8s3.6-8,8-8S200,355.6,200,360z"/>
</svg>
